<svg xmlns="http://www.w3.org/2000/svg" width="1920" height="1080"><desc>Created on https://trianglify.io</desc><path d="M969 525l-20 102 40 33z" fill="#f8f8f8" stroke="#f8f8f8" stroke-width="1.51"/><path d="M989 660l179-27-199-108z" fill="#f3f3f3" stroke="#f3f3f3" stroke-width="1.51"/><path d="M989 660l36 88 143-115z" fill="#ebebeb" stroke="#ebebeb" stroke-width="1.51"/><path d="M866 756l159-8-36-88z" fill="#ededed" stroke="#ededed" stroke-width="1.51"/><path d="M969 525l-197 62 177 40z" fill="#f7f7f7" stroke="#f7f7f7" stroke-width="1.51"/><path d="M1108 379l-184 47 45 99zM1168 633l35-109-234 1z" fill="#f3f3f3" stroke="#f3f3f3" stroke-width="1.51"/><path d="M1168 633l186 21-151-130z" fill="#e6e6e6" stroke="#e6e6e6" stroke-width="1.51"/><path d="M1025 748l180-46-37-69z" fill="#e5e5e5" stroke="#e5e5e5" stroke-width="1.51"/><path d="M949 627l-83 129 123-96z" fill="#f0f0f0" stroke="#f0f0f0" stroke-width="1.51"/><path d="M772 587l94 169 83-129z" fill="#ededed" stroke="#ededed" stroke-width="1.51"/><path d="M1203 524l-95-145-139 146z" fill="#f0f0f0" stroke="#f0f0f0" stroke-width="1.51"/><path d="M767 481l5 106 197-62z" fill="#f6f6f6" stroke="#f6f6f6" stroke-width="1.51"/><path d="M1108 379H919l5 47z" fill="#efefef" stroke="#efefef" stroke-width="1.51"/><path d="M866 756l82 62 77-70z" fill="#e6e6e6" stroke="#e6e6e6" stroke-width="1.51"/><path d="M1174 911l79-196-48-13z" fill="#d6d6d6" stroke="#d6d6d6" stroke-width="1.51"/><path d="M767 481l202 44-45-99z" fill="#f4f4f4" stroke="#f4f4f4" stroke-width="1.51"/><path d="M1205 702l48 13-85-82z" fill="#e1e1e1" stroke="#e1e1e1" stroke-width="1.51"/><path d="M1066 884l139-182-180 46z" fill="#ddd" stroke="#ddd" stroke-width="1.51"/><path d="M919 379L767 481l157-55z" fill="#eee" stroke="#eee" stroke-width="1.51"/><path d="M948 818l118 66-41-136z" fill="#dedede" stroke="#dedede" stroke-width="1.51"/><path d="M1108 379l-133-92-56 92z" fill="#e9e9e9" stroke="#e9e9e9" stroke-width="1.51"/><path d="M919 379l-175-42 23 144z" fill="#e8e8e8" stroke="#e8e8e8" stroke-width="1.51"/><path d="M1203 524l85-88-180-57z" fill="#e6e6e6" stroke="#e6e6e6" stroke-width="1.51"/><path d="M1137 223l-161 34-1 30z" fill="#dcdcdc" stroke="#dcdcdc" stroke-width="1.51"/><path d="M1414 596l-126-160-85 88z" fill="#e5e5e5" stroke="#e5e5e5" stroke-width="1.51"/><path d="M975 287l-45-26-11 118z" fill="#e6e6e6" stroke="#e6e6e6" stroke-width="1.51"/><path d="M1137 223l-162 64 133 92z" fill="#dedede" stroke="#dedede" stroke-width="1.51"/><path d="M976 257l-46 4 45 26z" fill="#e2e2e2" stroke="#e2e2e2" stroke-width="1.51"/><path d="M1253 715l101-61-186-21z" fill="#dedede" stroke="#dedede" stroke-width="1.51"/><path d="M1422 825l-68-171-101 61z" fill="#d1d1d1" stroke="#d1d1d1" stroke-width="1.51"/><path d="M866 756L711 890l237-72z" fill="#dadada" stroke="#dadada" stroke-width="1.51"/><path d="M837 1041l205 21 24-178z" fill="#c5c5c5" stroke="#c5c5c5" stroke-width="1.51"/><path d="M772 587l-50 183 144-14z" fill="#e4e4e4" stroke="#e4e4e4" stroke-width="1.51"/><path d="M611 714l111 56 50-183zM1288 436l-5-90-175 33z" fill="#dfdfdf" stroke="#dfdfdf" stroke-width="1.51"/><path d="M1386 438l-103-92 5 90z" fill="#d9d9d9" stroke="#d9d9d9" stroke-width="1.51"/><path d="M1066 884l108 27 31-209z" fill="#d4d4d4" stroke="#d4d4d4" stroke-width="1.51"/><path d="M767 481l-101 14 106 92z" fill="#eee" stroke="#eee" stroke-width="1.51"/><path d="M744 337l-78 158 101-14z" fill="#e6e6e6" stroke="#e6e6e6" stroke-width="1.51"/><path d="M798 255l-54 82 175 42z" fill="#e0e0e0" stroke="#e0e0e0" stroke-width="1.51"/><path d="M1283 346l-146-123-29 156z" fill="#dadada" stroke="#dadada" stroke-width="1.51"/><path d="M842 72l-44 183 132 6z" fill="#d2d2d2" stroke="#d2d2d2" stroke-width="1.51"/><path d="M666 495l-39 80 145 12z" fill="#ececec" stroke="#ececec" stroke-width="1.51"/><path d="M930 261l-132-6 121 124z" fill="#e1e1e1" stroke="#e1e1e1" stroke-width="1.51"/><path d="M1041 109L930 261l46-4z" fill="#d9d9d9" stroke="#d9d9d9" stroke-width="1.51"/><path d="M1354 654l60-58-211-72z" fill="#e1e1e1" stroke="#e1e1e1" stroke-width="1.51"/><path d="M1473 782l-59-186-60 58z" fill="#d2d2d2" stroke="#d2d2d2" stroke-width="1.51"/><path d="M1414 596l-28-158-98-2z" fill="#dedede" stroke="#dedede" stroke-width="1.51"/><path d="M1174 911l161-41-82-155z" fill="#ccc" stroke="#ccc" stroke-width="1.51"/><path d="M1042 1062l175-105-43-46z" fill="#bebebe" stroke="#bebebe" stroke-width="1.51"/><path d="M1042 1062l132-151-108-27z" fill="#c5c5c5" stroke="#c5c5c5" stroke-width="1.51"/><path d="M627 575l-16 139 161-127z" fill="#e3e3e3" stroke="#e3e3e3" stroke-width="1.51"/><path d="M1217 957l118-87-161 41z" fill="#c2c2c2" stroke="#c2c2c2" stroke-width="1.51"/><path d="M722 770l-11 120 155-134z" fill="#d6d6d6" stroke="#d6d6d6" stroke-width="1.51"/><path d="M599 910l112-20 11-120z" fill="#cacaca" stroke="#cacaca" stroke-width="1.51"/><path d="M1283 346l10-96-156-27z" fill="#d0d0d0" stroke="#d0d0d0" stroke-width="1.51"/><path d="M1372 283l-79-33-10 96z" fill="#cdcdcd" stroke="#cdcdcd" stroke-width="1.51"/><path d="M744 337l-147 59 69 99z" fill="#dfdfdf" stroke="#dfdfdf" stroke-width="1.51"/><path d="M666 495l-183-22 144 102z" fill="#e3e3e3" stroke="#e3e3e3" stroke-width="1.51"/><path d="M627 575l-174 63 158 76z" fill="#d9d9d9" stroke="#d9d9d9" stroke-width="1.51"/><path d="M672 248l-75 148 147-59z" fill="#d6d6d6" stroke="#d6d6d6" stroke-width="1.51"/><path d="M1395 207l-23 76 136 48z" fill="#c2c2c2" stroke="#c2c2c2" stroke-width="1.51"/><path d="M1386 438l-14-155-89 63z" fill="#d1d1d1" stroke="#d1d1d1" stroke-width="1.51"/><path d="M1339 1011l83-186-87 45z" fill="#b9b9b9" stroke="#b9b9b9" stroke-width="1.51"/><path d="M1335 870l87-45-169-110z" fill="#c9c9c9" stroke="#c9c9c9" stroke-width="1.51"/><path d="M837 1041l229-157-118-66zM1137 223l-96-114-65 148z" fill="#d3d3d3" stroke="#d3d3d3" stroke-width="1.51"/><path d="M1209 28l-168 81 96 114z" fill="#c1c1c1" stroke="#c1c1c1" stroke-width="1.51"/><path d="M1209 28l-72 195 167-157z" fill="#b9b9b9" stroke="#b9b9b9" stroke-width="1.51"/><path d="M710 69l-38 179 126 7z" fill="#c9c9c9" stroke="#c9c9c9" stroke-width="1.51"/><path d="M798 255l-126-7 72 89z" fill="#d6d6d6" stroke="#d6d6d6" stroke-width="1.51"/><path d="M711 890l126 151 111-223z" fill="#cbcbcb" stroke="#cbcbcb" stroke-width="1.51"/><path d="M1422 825l51-43-119-128z" fill="#c9c9c9" stroke="#c9c9c9" stroke-width="1.51"/><path d="M1508 331l-136-48 14 155z" fill="#cbcbcb" stroke="#cbcbcb" stroke-width="1.51"/><path d="M599 910l113 90-1-110z" fill="#bebebe" stroke="#bebebe" stroke-width="1.51"/><path d="M711 890l1 110 125 41z" fill="#bcbcbc" stroke="#bcbcbc" stroke-width="1.51"/><path d="M718 1156l190-56-71-59z" fill="#aaa" stroke="#aaa" stroke-width="1.51"/><path d="M837 1041l71 59 134-38z" fill="#b7b7b7" stroke="#b7b7b7" stroke-width="1.51"/><path d="M611 714l-12 196 123-140z" fill="#cecece" stroke="#cecece" stroke-width="1.51"/><path d="M434 857l165 53 12-196z" fill="#c3c3c3" stroke="#c3c3c3" stroke-width="1.51"/><path d="M1217 957l122 54-4-141zM1422 825l136 84-85-127z" fill="#b8b8b8" stroke="#b8b8b8" stroke-width="1.51"/><path d="M1272 1123l67-112-122-54z" fill="#acacac" stroke="#acacac" stroke-width="1.51"/><path d="M1272 1123l-55-166-175 105z" fill="#afafaf" stroke="#afafaf" stroke-width="1.51"/><path d="M1372 283l23-76-102 43z" fill="#c4c4c4" stroke="#c4c4c4" stroke-width="1.51"/><path d="M1508 331l-122 107 200 15z" fill="#cacaca" stroke="#cacaca" stroke-width="1.51"/><path d="M1041 109L842 72l88 189z" fill="#cfcfcf" stroke="#cfcfcf" stroke-width="1.51"/><path d="M597 396l-114 77 183 22z" fill="#dcdcdc" stroke="#dcdcdc" stroke-width="1.51"/><path d="M435 395l48 78 114-77z" fill="#d3d3d3" stroke="#d3d3d3" stroke-width="1.51"/><path d="M908 1100l101 42 33-80z" fill="#b0b0b0" stroke="#b0b0b0" stroke-width="1.51"/><path d="M1586 453l-200-15 28 158z" fill="#d6d6d6" stroke="#d6d6d6" stroke-width="1.51"/><path d="M483 473l-30 165 174-63z" fill="#dedede" stroke="#dedede" stroke-width="1.51"/><path d="M453 638l-1 82 159-6z" fill="#d0d0d0" stroke="#d0d0d0" stroke-width="1.51"/><path d="M1617 590l-31-137-172 143z" fill="#d1d1d1" stroke="#d1d1d1" stroke-width="1.51"/><path d="M1304 66l-167 157 156 27z" fill="#c3c3c3" stroke="#c3c3c3" stroke-width="1.51"/><path d="M1041 109L929-51 842 72z" fill="#bdbdbd" stroke="#bdbdbd" stroke-width="1.51"/><path d="M1125 1187l147-64-230-61z" fill="#a2a2a2" stroke="#a2a2a2" stroke-width="1.51"/><path d="M1395 207l-91-141-11 184z" fill="#bcbcbc" stroke="#bcbcbc" stroke-width="1.51"/><path d="M1443 75l-139-9 91 141z" fill="#afafaf" stroke="#afafaf" stroke-width="1.51"/><path d="M1608 729l9-139-203 6z" fill="#c7c7c7" stroke="#c7c7c7" stroke-width="1.51"/><path d="M1608 729l-194-133 59 186z" fill="#c7c7c7" stroke="#c7c7c7" stroke-width="1.51"/><path d="M1558 909l-136-84 116 136z" fill="#adadad" stroke="#adadad" stroke-width="1.51"/><path d="M842 72l-132-3 88 186z" fill="#c3c3c3" stroke="#c3c3c3" stroke-width="1.51"/><path d="M433 172l2 223 162 1z" fill="#c7c7c7" stroke="#c7c7c7" stroke-width="1.51"/><path d="M815-36L710 69l132 3z" fill="#b3b3b3" stroke="#b3b3b3" stroke-width="1.51"/><path d="M1272 1123l109-57-42-55z" fill="#a0a0a0" stroke="#a0a0a0" stroke-width="1.51"/><path d="M1558 909l50-180-135 53z" fill="#b5b5b5" stroke="#b5b5b5" stroke-width="1.51"/><path d="M1009 1142l116 45-83-125z" fill="#a6a6a6" stroke="#a6a6a6" stroke-width="1.51"/><path d="M483 473l-79 130 49 35z" fill="#d6d6d6" stroke="#d6d6d6" stroke-width="1.51"/><path d="M453 638l-49-35 48 117z" fill="#cdcdcd" stroke="#cdcdcd" stroke-width="1.51"/><path d="M433 172l164 224 75-148z" fill="#c7c7c7" stroke="#c7c7c7" stroke-width="1.51"/><path d="M410 458l-6 145 79-130z" fill="#d4d4d4" stroke="#d4d4d4" stroke-width="1.51"/><path d="M435 395l-25 63 73 15z" fill="#cfcfcf" stroke="#cfcfcf" stroke-width="1.51"/><path d="M1538 961l-116-136-83 186z" fill="#b0b0b0" stroke="#b0b0b0" stroke-width="1.51"/><path d="M599 910l-15 144 128-54z" fill="#b1b1b1" stroke="#b1b1b1" stroke-width="1.51"/><path d="M712 1000l6 156 119-115z" fill="#acacac" stroke="#acacac" stroke-width="1.51"/><path d="M841 1309l234-10-66-157z" fill="#949494" stroke="#949494" stroke-width="1.51"/><path d="M1009 1142l66 157 50-112z" fill="#969696" stroke="#969696" stroke-width="1.51"/><path d="M464 1019l120 35 15-144z" fill="#aaa" stroke="#aaa" stroke-width="1.51"/><path d="M434 857l177-143-159 6z" fill="#c7c7c7" stroke="#c7c7c7" stroke-width="1.51"/><path d="M394 841l40 16 18-137z" fill="#bbb" stroke="#bbb" stroke-width="1.51"/><path d="M589 1099l129 57-6-156z" fill="#a3a3a3" stroke="#a3a3a3" stroke-width="1.51"/><path d="M1381 1066l157-105-199 50z" fill="#a4a4a4" stroke="#a4a4a4" stroke-width="1.51"/><path d="M981-115l-52 64 112 160z" fill="#b1b1b1" stroke="#b1b1b1" stroke-width="1.51"/><path d="M929-51L815-36l27 108z" fill="#afafaf" stroke="#afafaf" stroke-width="1.51"/><path d="M641-105L619 63l91 6z" fill="#a4a4a4" stroke="#a4a4a4" stroke-width="1.51"/><path d="M710 69l-91-6 53 185z" fill="#bababa" stroke="#bababa" stroke-width="1.51"/><path d="M500 1100l89-1-5-45z" fill="#9b9b9b" stroke="#9b9b9b" stroke-width="1.51"/><path d="M584 1054l5 45 123-99z" fill="#a6a6a6" stroke="#a6a6a6" stroke-width="1.51"/><path d="M1314-27l-157-41 52 96z" fill="#a1a1a1" stroke="#a1a1a1" stroke-width="1.51"/><path d="M1209 28l-52-96-116 177z" fill="#b0b0b0" stroke="#b0b0b0" stroke-width="1.51"/><path d="M1585 203L1443 75l-48 132z" fill="#adadad" stroke="#adadad" stroke-width="1.51"/><path d="M1585 203l-190 4 113 124z" fill="#b8b8b8" stroke="#b8b8b8" stroke-width="1.51"/><path d="M1314-27l-105 55 95 38z" fill="#a6a6a6" stroke="#a6a6a6" stroke-width="1.51"/><path d="M434 857l30 162 135-109z" fill="#b1b1b1" stroke="#b1b1b1" stroke-width="1.51"/><path d="M314 718l80 123 58-121z" fill="#bcbcbc" stroke="#bcbcbc" stroke-width="1.51"/><path d="M314 718l138 2-48-117z" fill="#c5c5c5" stroke="#c5c5c5" stroke-width="1.51"/><path d="M1443 75L1314-27l-10 93z" fill="#a3a3a3" stroke="#a3a3a3" stroke-width="1.51"/><path d="M1683 375l-175-44 78 122z" fill="#bdbdbd" stroke="#bdbdbd" stroke-width="1.51"/><path d="M1683 375l-98-172-77 128z" fill="#b4b4b4" stroke="#b4b4b4" stroke-width="1.51"/><path d="M1558 909l89-46-39-134z" fill="#acacac" stroke="#acacac" stroke-width="1.51"/><path d="M1608 729l122-42-113-97z" fill="#b9b9b9" stroke="#b9b9b9" stroke-width="1.51"/><path d="M1617 590l70-173-101 36z" fill="#c2c2c2" stroke="#c2c2c2" stroke-width="1.51"/><path d="M1538 961l109-98-89 46z" fill="#a3a3a3" stroke="#a3a3a3" stroke-width="1.51"/><path d="M1755 574l-68-157-70 173z" fill="silver" stroke="silver" stroke-width="1.51"/><path d="M1538 961l215 68-106-166z" fill="#969696" stroke="#969696" stroke-width="1.51"/><path d="M1381 1066l71 68 86-173z" fill="#999" stroke="#999" stroke-width="1.51"/><path d="M1334 1231l118-97-71-68z" fill="#8d8d8d" stroke="#8d8d8d" stroke-width="1.51"/><path d="M1334 1231l47-165-109 57z" fill="#939393" stroke="#939393" stroke-width="1.51"/><path d="M1687 417l-4-42-97 78z" fill="#bababa" stroke="#bababa" stroke-width="1.51"/><path d="M394 841l70 178-30-162z" fill="#aeaeae" stroke="#aeaeae" stroke-width="1.51"/><path d="M929-51l-85-132-29 147z" fill="#9e9e9e" stroke="#9e9e9e" stroke-width="1.51"/><path d="M1157-68l-176-47 60 224z" fill="#ababab" stroke="#ababab" stroke-width="1.51"/><path d="M1018-234l-37 119 176 47z" fill="#969696" stroke="#969696" stroke-width="1.51"/><path d="M224 562l90 156 90-115z" fill="#c2c2c2" stroke="#c2c2c2" stroke-width="1.51"/><path d="M394 841l16 225 54-47z" fill="#a2a2a2" stroke="#a2a2a2" stroke-width="1.51"/><path d="M1125 1187l209 44-62-108z" fill="#919191" stroke="#919191" stroke-width="1.51"/><path d="M841 1309l168-167-101-42z" fill="#9f9f9f" stroke="#9f9f9f" stroke-width="1.51"/><path d="M619 63L433 172l239 76z" fill="#b8b8b8" stroke="#b8b8b8" stroke-width="1.51"/><path d="M435 395l-123-97 98 160z" fill="#c4c4c4" stroke="#c4c4c4" stroke-width="1.51"/><path d="M410 458L224 562l180 41z" fill="#cdcdcd" stroke="#cdcdcd" stroke-width="1.51"/><path d="M1107 1314l227-83-209-44z" fill="#898989" stroke="#898989" stroke-width="1.51"/><path d="M1647 863l83-176-122 42z" fill="#aeaeae" stroke="#aeaeae" stroke-width="1.51"/><path d="M1687 417l105 27-109-69z" fill="#b1b1b1" stroke="#b1b1b1" stroke-width="1.51"/><path d="M410 1066l90 34-36-81z" fill="#979797" stroke="#979797" stroke-width="1.51"/><path d="M464 1019l36 81 84-46z" fill="#9c9c9c" stroke="#9c9c9c" stroke-width="1.51"/><path d="M636 1312l113 14-31-170z" fill="#838383" stroke="#838383" stroke-width="1.51"/><path d="M718 1156l123 153 67-209z" fill="#999" stroke="#999" stroke-width="1.51"/><path d="M1075 1299l32 15 18-127z" fill="#898989" stroke="#898989" stroke-width="1.51"/><path d="M841 1309l266 5-32-15z" fill="#888" stroke="#888" stroke-width="1.51"/><path d="M1730 687l25-113-138 16z" fill="#b8b8b8" stroke="#b8b8b8" stroke-width="1.51"/><path d="M641-105l69 174L815-36z" fill="#a2a2a2" stroke="#a2a2a2" stroke-width="1.51"/><path d="M480-26l19 81 120 8z" fill="#9f9f9f" stroke="#9f9f9f" stroke-width="1.51"/><path d="M619 63l-120-8-66 117z" fill="#aaa" stroke="#aaa" stroke-width="1.51"/><path d="M749 1326l92-17-123-153z" fill="#878787" stroke="#878787" stroke-width="1.51"/><path d="M1452 1134l112-26-26-147z" fill="#909090" stroke="#909090" stroke-width="1.51"/><path d="M1830 819l-13-98-87-34z" fill="#a0a0a0" stroke="#a0a0a0" stroke-width="1.51"/><path d="M1478 1228l86-120-112 26z" fill="#818181" stroke="#818181" stroke-width="1.51"/><path d="M358 166l-46 132 121-126z" fill="#adadad" stroke="#adadad" stroke-width="1.51"/><path d="M433 172L312 298l123 97z" fill="#b9b9b9" stroke="#b9b9b9" stroke-width="1.51"/><path d="M1548-78l-122 20 17 133z" fill="#8f8f8f" stroke="#8f8f8f" stroke-width="1.51"/><path d="M1443 75l-17-133-112 31z" fill="#999" stroke="#999" stroke-width="1.51"/><path d="M1314-27l-100-141-57 100z" fill="#959595" stroke="#959595" stroke-width="1.51"/><path d="M636 1312l82-156-129-57z" fill="#8d8d8d" stroke="#8d8d8d" stroke-width="1.51"/><path d="M351 1097l59-31-16-225z" fill="#9a9a9a" stroke="#9a9a9a" stroke-width="1.51"/><path d="M1817 721l-27-173-35 26z" fill="#adadad" stroke="#adadad" stroke-width="1.51"/><path d="M1755 574l37-130-105-27z" fill="#b4b4b4" stroke="#b4b4b4" stroke-width="1.51"/><path d="M1742 226L1602 72l-17 131z" fill="#9d9d9d" stroke="#9d9d9d" stroke-width="1.51"/><path d="M1817 721l-62-147-25 113z" fill="#acacac" stroke="#acacac" stroke-width="1.51"/><path d="M1585 203l17-131-159 3z" fill="#9f9f9f" stroke="#9f9f9f" stroke-width="1.51"/><path d="M1742 226l-157-23 98 172z" fill="#a8a8a8" stroke="#a8a8a8" stroke-width="1.51"/><path d="M1426-58l-212-110 100 141z" fill="#8f8f8f" stroke="#8f8f8f" stroke-width="1.51"/><path d="M354 72l4 94 75 6z" fill="#a3a3a3" stroke="#a3a3a3" stroke-width="1.51"/><path d="M636 1312l-47-213-131 205z" fill="#7d7d7d" stroke="#7d7d7d" stroke-width="1.51"/><path d="M841 1309l-92 17 358-12z" fill="#858585" stroke="#858585" stroke-width="1.51"/><path d="M733-177l-92 72 174 69z" fill="#949494" stroke="#949494" stroke-width="1.51"/><path d="M499 55L354 72l79 100z" fill="#a2a2a2" stroke="#a2a2a2" stroke-width="1.51"/><path d="M844-183l85 132 52-64z" fill="#9d9d9d" stroke="#9d9d9d" stroke-width="1.51"/><path d="M1018-234l-174 51 137 68z" fill="#929292" stroke="#929292" stroke-width="1.51"/><path d="M1790 548l2-104-37 130z" fill="#b3b3b3" stroke="#b3b3b3" stroke-width="1.51"/><path d="M1616 1260l-138-32-144 3z" fill="#747474" stroke="#747474" stroke-width="1.51"/><path d="M1334 1231l144-3-26-94z" fill="#818181" stroke="#818181" stroke-width="1.51"/><path d="M220 479l4 83 186-104z" fill="#c3c3c3" stroke="#c3c3c3" stroke-width="1.51"/><path d="M314 718L166 833l228 8z" fill="#aeaeae" stroke="#aeaeae" stroke-width="1.51"/><path d="M237 315l-17 164 92-181z" fill="#b3b3b3" stroke="#b3b3b3" stroke-width="1.51"/><path d="M312 298l-92 181 190-21z" fill="#bebebe" stroke="#bebebe" stroke-width="1.51"/><path d="M1877 300l-135-74-59 149z" fill="#9f9f9f" stroke="#9f9f9f" stroke-width="1.51"/><path d="M1830 819l-100-132-83 176z" fill="#a2a2a2" stroke="#a2a2a2" stroke-width="1.51"/><path d="M1912 308l-35-8-85 144zM641-105L480-26l139 89z" fill="#999" stroke="#999" stroke-width="1.51"/><path d="M641-105l-133-89-28 168z" fill="#868686" stroke="#868686" stroke-width="1.51"/><path d="M844-183l-111 6 82 141z" fill="#939393" stroke="#939393" stroke-width="1.51"/><path d="M733-177l-68 28-24 44z" fill="#898989" stroke="#898989" stroke-width="1.51"/><path d="M458 1304l131-205-89 1z" fill="#878787" stroke="#878787" stroke-width="1.51"/><path d="M844-183l174-51-285 57z" fill="#8a8a8a" stroke="#8a8a8a" stroke-width="1.51"/><path d="M1214-168l-196-66 139 166z" fill="#8e8e8e" stroke="#8e8e8e" stroke-width="1.51"/><path d="M165 229l147 69 46-132z" fill="#a6a6a6" stroke="#a6a6a6" stroke-width="1.51"/><path d="M165 229l72 86 75-17z" fill="#a8a8a8" stroke="#a8a8a8" stroke-width="1.51"/><path d="M114 619l84 92 26-149z" fill="#b1b1b1" stroke="#b1b1b1" stroke-width="1.51"/><path d="M224 562l-26 149 116 7z" fill="#b7b7b7" stroke="#b7b7b7" stroke-width="1.51"/><path d="M1564 1108l100 3-126-150z" fill="#8a8a8a" stroke="#8a8a8a" stroke-width="1.51"/><path d="M1616 1260l48-149-100-3z" fill="#757575" stroke="#757575" stroke-width="1.51"/><path d="M410 1066l-59 31 149 3z" fill="#8e8e8e" stroke="#8e8e8e" stroke-width="1.51"/><path d="M177 1059l174 38 43-256z" fill="#929292" stroke="#929292" stroke-width="1.51"/><path d="M379-15l-25 87 145-17z" fill="#969696" stroke="#969696" stroke-width="1.51"/><path d="M1877 300l-194 75 109 69z" fill="#a5a5a5" stroke="#a5a5a5" stroke-width="1.51"/><path d="M1816 970l14-151-183 44z" fill="#939393" stroke="#939393" stroke-width="1.51"/><path d="M1468-177l-231-80-23 89z" fill="#7a7a7a" stroke="#7a7a7a" stroke-width="1.51"/><path d="M1214-168l23-89-219 23z" fill="gray" stroke="gray" stroke-width="1.51"/><path d="M1602 72l-54-150-105 153z" fill="#919191" stroke="#919191" stroke-width="1.51"/><path d="M1678-94l-130 16 54 150z" fill="#7e7e7e" stroke="#7e7e7e" stroke-width="1.51"/><path d="M1664 1111l89-82-215-68z" fill="#888" stroke="#888" stroke-width="1.51"/><path d="M1468-177l-254 9 212 110z" fill="#818181" stroke="#818181" stroke-width="1.51"/><path d="M193 77l-28 152 193-63z" fill="#979797" stroke="#979797" stroke-width="1.51"/><path d="M480-26L379-15l120 70z" fill="#949494" stroke="#949494" stroke-width="1.51"/><path d="M508-194L379-15l101-11z" fill="#848484" stroke="#848484" stroke-width="1.51"/><path d="M198 711l-32 122 148-115z" fill="#ababab" stroke="#ababab" stroke-width="1.51"/><path d="M67 799l99 34 32-122z" fill="#9e9e9e" stroke="#9e9e9e" stroke-width="1.51"/><path d="M114 619l110-57-4-83z" fill="#b9b9b9" stroke="#b9b9b9" stroke-width="1.51"/><path d="M1742 226l-3-204-137 50z" fill="#8e8e8e" stroke="#8e8e8e" stroke-width="1.51"/><path d="M1877 300l-70-109-65 35z" fill="#939393" stroke="#939393" stroke-width="1.51"/><path d="M1792 444l-2 104 148-44z" fill="#a9a9a9" stroke="#a9a9a9" stroke-width="1.51"/><path d="M1753 1029l63-59-169-107z" fill="#8b8b8b" stroke="#8b8b8b" stroke-width="1.51"/><path d="M1548-78l-80-99-42 119z" fill="#7e7e7e" stroke="#7e7e7e" stroke-width="1.51"/><path d="M1534-171l-66-6 80 99z" fill="#737373" stroke="#737373" stroke-width="1.51"/><path d="M1664 1111l126 74-37-156z" fill="#717171" stroke="#717171" stroke-width="1.51"/><path d="M1753 1029l179-32-116-27z" fill="#797979" stroke="#797979" stroke-width="1.51"/><path d="M1478 1228l138 32-52-152z" fill="#747474" stroke="#747474" stroke-width="1.51"/><path d="M1107 1314l509-54-282-29z" fill="#797979" stroke="#797979" stroke-width="1.51"/><path d="M31 486l83 133 106-140z" fill="#b1b1b1" stroke="#b1b1b1" stroke-width="1.51"/><path d="M1919 711l-129-163 27 173z" fill="#a2a2a2" stroke="#a2a2a2" stroke-width="1.51"/><path d="M636 1312l-178-8 291 22z" fill="#747474" stroke="#747474" stroke-width="1.51"/><path d="M351 1097l107 207 42-204z" fill="gray" stroke="gray" stroke-width="1.51"/><path d="M380 1301l78 3-107-207z" fill="#717171" stroke="#717171" stroke-width="1.51"/><path d="M1830 819l89-108-102 10z" fill="#979797" stroke="#979797" stroke-width="1.51"/><path d="M2014 849l-95-138-89 108z" fill="#8a8a8a" stroke="#8a8a8a" stroke-width="1.51"/><path d="M1807 31l-68-9 68 169z" fill="#7f7f7f" stroke="#7f7f7f" stroke-width="1.51"/><path d="M1807 191l-68-169 3 204z" fill="#8b8b8b" stroke="#8b8b8b" stroke-width="1.51"/><path d="M1678-94l-144-77 14 93z" fill="#727272" stroke="#727272" stroke-width="1.51"/><path d="M1468-177l280-63-511-17z" fill="#676767" stroke="#676767" stroke-width="1.51"/><path d="M193 77l165 89-4-94z" fill="#959595" stroke="#959595" stroke-width="1.51"/><path d="M237 315L54 390l166 89z" fill="#ababab" stroke="#ababab" stroke-width="1.51"/><path d="M1919 711l19-207-148 44z" fill="#a3a3a3" stroke="#a3a3a3" stroke-width="1.51"/><path d="M665-149l-157-45 133 89z" fill="#828282" stroke="#828282" stroke-width="1.51"/><path d="M193-9v86l161-5z" fill="#868686" stroke="#868686" stroke-width="1.51"/><path d="M733-177l-225-17 157 45z" fill="gray" stroke="gray" stroke-width="1.51"/><path d="M1018-234l-510 40 225 17z" fill="#828282" stroke="#828282" stroke-width="1.51"/><path d="M309-218l199 24-318-53z" fill="#5f5f5f" stroke="#5f5f5f" stroke-width="1.51"/><path d="M177 1059l70 59 104-21z" fill="#7d7d7d" stroke="#7d7d7d" stroke-width="1.51"/><path d="M1877 300l35-100-105-9z" fill="#8a8a8a" stroke="#8a8a8a" stroke-width="1.51"/><path d="M1938 504l-26-196-120 136z" fill="#9d9d9d" stroke="#9d9d9d" stroke-width="1.51"/><path d="M1739 22l-61-116-76 166z" fill="#7e7e7e" stroke="#7e7e7e" stroke-width="1.51"/><path d="M1856-69l-178-25 61 116z" fill="#6b6b6b" stroke="#6b6b6b" stroke-width="1.51"/><path d="M1616 1260l54 22-6-171z" fill="#676767" stroke="#676767" stroke-width="1.51"/><path d="M1107 1314l563-32-54-22z" fill="#6d6d6d" stroke="#6d6d6d" stroke-width="1.51"/><path d="M166 833l11 226 217-218z" fill="#999" stroke="#999" stroke-width="1.51"/><path d="M67 799l49 111 50-77z" fill="#939393" stroke="#939393" stroke-width="1.51"/><path d="M247 1118l133 183-29-204z" fill="#747474" stroke="#747474" stroke-width="1.51"/><path d="M458 1304l-78-3 369 25z" fill="#6e6e6e" stroke="#6e6e6e" stroke-width="1.51"/><path d="M247 1118l-72 143 205 40z" fill="#656565" stroke="#656565" stroke-width="1.51"/><path d="M116 910l61 149-11-226z" fill="#8b8b8b" stroke="#8b8b8b" stroke-width="1.51"/><path d="M1912 200L1807 31v160z" fill="gray" stroke="gray" stroke-width="1.51"/><path d="M193-9l161 81 25-87z" fill="#878787" stroke="#878787" stroke-width="1.51"/><path d="M116 910l-33 93 94 56z" fill="#7e7e7e" stroke="#7e7e7e" stroke-width="1.51"/><path d="M114 619L67 799l131-88z" fill="#a3a3a3" stroke="#a3a3a3" stroke-width="1.51"/><path d="M-29 739l96 60 47-180z" fill="#989898" stroke="#989898" stroke-width="1.51"/><path d="M1912 308V200l-35 100z" fill="#8a8a8a" stroke="#8a8a8a" stroke-width="1.51"/><path d="M2090 171l-178 29v108z" fill="#7d7d7d" stroke="#7d7d7d" stroke-width="1.51"/><path d="M1670 1282l120-97-126-74z" fill="#656565" stroke="#656565" stroke-width="1.51"/><path d="M1816 970l116 27-102-178z" fill="gray" stroke="gray" stroke-width="1.51"/><path d="M165 229L54 390l183-75z" fill="#a0a0a0" stroke="#a0a0a0" stroke-width="1.51"/><path d="M-20 240l74 150 111-161z" fill="#929292" stroke="#929292" stroke-width="1.51"/><path d="M54 390l-23 96 189-7z" fill="#a8a8a8" stroke="#a8a8a8" stroke-width="1.51"/><path d="M1790 1185l142-188-179 32z" fill="#6d6d6d" stroke="#6d6d6d" stroke-width="1.51"/><path d="M1919 711l102-115-83-92z" fill="#989898" stroke="#989898" stroke-width="1.51"/><path d="M1938 504l183-135-209-61z" fill="#8d8d8d" stroke="#8d8d8d" stroke-width="1.51"/><path d="M2072 786l-51-190-102 115z" fill="#8a8a8a" stroke="#8a8a8a" stroke-width="1.51"/><path d="M193 77L38 154l127 75z" fill="#898989" stroke="#898989" stroke-width="1.51"/><path d="M309-218L193-9l186-6z" fill="#737373" stroke="#737373" stroke-width="1.51"/><path d="M177 1059l-57 37 127 22z" fill="#747474" stroke="#747474" stroke-width="1.51"/><path d="M-52 930l135 73 33-93z" fill="#7c7c7c" stroke="#7c7c7c" stroke-width="1.51"/><path d="M-52 930l168-20-49-111z" fill="#858585" stroke="#858585" stroke-width="1.51"/><path d="M83 1003l37 93 57-37z" fill="#747474" stroke="#747474" stroke-width="1.51"/><path d="M1932 997l82-148-184-30z" fill="#7e7e7e" stroke="#7e7e7e" stroke-width="1.51"/><path d="M31 486l-66 152 149-19z" fill="#a3a3a3" stroke="#a3a3a3" stroke-width="1.51"/><path d="M-104 492l69 146 66-152z" fill="#9e9e9e" stroke="#9e9e9e" stroke-width="1.51"/><path d="M-37 378l68 108 23-96z" fill="#999" stroke="#999" stroke-width="1.51"/><path d="M-35 638l6 101 143-120z" fill="#9a9a9a" stroke="#9a9a9a" stroke-width="1.51"/><path d="M88 1286l87-25-55-165z" fill="#585858" stroke="#585858" stroke-width="1.51"/><path d="M1807 31l49-100-117 91z" fill="#6d6d6d" stroke="#6d6d6d" stroke-width="1.51"/><path d="M1678-94l70-146-214 69z" fill="#616161" stroke="#616161" stroke-width="1.51"/><path d="M1916-95l-60 26 169 86z" fill="#565656" stroke="#565656" stroke-width="1.51"/><path d="M1856-69l-49 100 218-14z" fill="#626262" stroke="#626262" stroke-width="1.51"/><path d="M47 72l-9 82 155-77z" fill="#7c7c7c" stroke="#7c7c7c" stroke-width="1.51"/><path d="M193-9L47 72l146 5z" fill="#7a7a7a" stroke="#7a7a7a" stroke-width="1.51"/><path d="M508-194l-199-24 70 203z" fill="#737373" stroke="#737373" stroke-width="1.51"/><path d="M190-247l318 53 510-40z" fill="#727272" stroke="#727272" stroke-width="1.51"/><path d="M-20 240l-17 138 91 12z" fill="#909090" stroke="#909090" stroke-width="1.51"/><path d="M2086 825l-14-39-58 63z" fill="#767676" stroke="#767676" stroke-width="1.51"/><path d="M2014 849l58-63-153-75z" fill="#818181" stroke="#818181" stroke-width="1.51"/><path d="M2021 596l90-85-173-7z" fill="#959595" stroke="#959595" stroke-width="1.51"/><path d="M-46 1143l166-47-37-93z" fill="#666" stroke="#666" stroke-width="1.51"/><path d="M120 1096l55 165 72-143z" fill="#686868" stroke="#686868" stroke-width="1.51"/><path d="M38 154l-58 86 185-11z" fill="#898989" stroke="#898989" stroke-width="1.51"/><path d="M2141 1007l-55-182-72 24z" fill="#6a6a6a" stroke="#6a6a6a" stroke-width="1.51"/><path d="M2150 635l-39-124-90 85z" fill="#898989" stroke="#898989" stroke-width="1.51"/><path d="M2141 1007l-127-158-82 148z" fill="#686868" stroke="#686868" stroke-width="1.51"/><path d="M38 154l-166 40 108 46z" fill="#7a7a7a" stroke="#7a7a7a" stroke-width="1.51"/><path d="M102-113L47 72 193-9z" fill="#6a6a6a" stroke="#6a6a6a" stroke-width="1.51"/><path d="M2150 635l-129-39 51 190z" fill="#838383" stroke="#838383" stroke-width="1.51"/><path d="M1856-69l-108-171-70 146z" fill="#5b5b5b" stroke="#5b5b5b" stroke-width="1.51"/><path d="M1534-171l214-69-280 63z" fill="#636363" stroke="#636363" stroke-width="1.51"/><path d="M1933 1282l21-97h-164z" fill="#4b4b4b" stroke="#4b4b4b" stroke-width="1.51"/><path d="M1790 1185h164l-22-188z" fill="#5c5c5c" stroke="#5c5c5c" stroke-width="1.51"/><path d="M1670 1282l186 40-66-137z" fill="#515151" stroke="#515151" stroke-width="1.51"/><path d="M1107 1314l749 8-186-40z" fill="#616161" stroke="#616161" stroke-width="1.51"/><path d="M749 1326l1107-4-749-8z" fill="#777" stroke="#777" stroke-width="1.51"/><path d="M-29 739l-23 191L67 799z" fill="#868686" stroke="#868686" stroke-width="1.51"/><path d="M-130 922l78 8 23-191z" fill="#7a7a7a" stroke="#7a7a7a" stroke-width="1.51"/><path d="M-130 922l101-183-148-14z" fill="#7c7c7c" stroke="#7c7c7c" stroke-width="1.51"/><path d="M-37 378l-67 114 135-6z" fill="#969696" stroke="#969696" stroke-width="1.51"/><path d="M-221 462l117 30-110-133z" fill="#838383" stroke="#838383" stroke-width="1.51"/><path d="M2111 511l10-142-183 135z" fill="#8a8a8a" stroke="#8a8a8a" stroke-width="1.51"/><path d="M1856-69v-167l-108-4z" fill="#4c4c4c" stroke="#4c4c4c" stroke-width="1.51"/><path d="M2025 17l-218 14 105 169z" fill="#6f6f6f" stroke="#6f6f6f" stroke-width="1.51"/><path d="M2111 511l39 124-29-266z" fill="#858585" stroke="#858585" stroke-width="1.51"/><path d="M2086 825l64-190-78 151z" fill="#787878" stroke="#787878" stroke-width="1.51"/><path d="M1856 1322l77-40-143-97z" fill="#474747" stroke="#474747" stroke-width="1.51"/><path d="M1954 1185l96-59-118-129z" fill="#565656" stroke="#565656" stroke-width="1.51"/><path d="M2086 825l55 182 9-372z" fill="#6e6e6e" stroke="#6e6e6e" stroke-width="1.51"/><path d="M309-218L102-113 193-9z" fill="#646464" stroke="#646464" stroke-width="1.51"/><path d="M47 72l-65-54 56 136z" fill="#717171" stroke="#717171" stroke-width="1.51"/><path d="M2121 369l-31-198-178 137z" fill="#7a7a7a" stroke="#7a7a7a" stroke-width="1.51"/><path d="M2090 171l-65-154-113 183z" fill="#6a6a6a" stroke="#6a6a6a" stroke-width="1.51"/><path d="M175 1261l-87 25 292 15z" fill="#565656" stroke="#565656" stroke-width="1.51"/><path d="M380 1301l-582-1 951 26z" fill="#5a5a5a" stroke="#5a5a5a" stroke-width="1.51"/><path d="M-46 1143l134 143 32-190z" fill="#555" stroke="#555" stroke-width="1.51"/><path d="M2043 1235l7-109-96 59z" fill="#444" stroke="#444" stroke-width="1.51"/><path d="M309-218l-119-29-88 134z" fill="#565656" stroke="#565656" stroke-width="1.51"/><path d="M1237-257L190-247l828 13z" fill="#7e7e7e" stroke="#7e7e7e" stroke-width="1.51"/><path d="M1916-95l-60-141v167z" fill="#4e4e4e" stroke="#4e4e4e" stroke-width="1.51"/><path d="M1950-197l-94-39 60 141z" fill="#444" stroke="#444" stroke-width="1.51"/><path d="M-52-99l34 117 120-131z" fill="#565656" stroke="#565656" stroke-width="1.51"/><path d="M102-113L-18 18l65 54z" fill="#646464" stroke="#646464" stroke-width="1.51"/><path d="M-20 240l-108-46 91 184z" fill="gray" stroke="gray" stroke-width="1.51"/><path d="M-94 1056l48 87 129-140z" fill="#606060" stroke="#606060" stroke-width="1.51"/><path d="M-177 725l148 14-6-101z" fill="#8a8a8a" stroke="#8a8a8a" stroke-width="1.51"/><path d="M-94 1056l177-53-135-73z" fill="#6c6c6c" stroke="#6c6c6c" stroke-width="1.51"/><path d="M-187 636l152 2-69-146z" fill="#909090" stroke="#909090" stroke-width="1.51"/><path d="M-187 636l10 89 142-87z" fill="#878787" stroke="#878787" stroke-width="1.51"/><path d="M2050 1126l91-119-209-10z" fill="#595959" stroke="#595959" stroke-width="1.51"/><path d="M2043 1235l98-228-91 119z" fill="#474747" stroke="#474747" stroke-width="1.51"/><path d="M-221 462l34 174 83-144z" fill="#8c8c8c" stroke="#8c8c8c" stroke-width="1.51"/><path d="M-138 989l44 67 42-126z" fill="#646464" stroke="#646464" stroke-width="1.51"/><path d="M-18 18l-110 176 166-40z" fill="#707070" stroke="#707070" stroke-width="1.51"/><path d="M1856 1322l187-87-110 47z" fill="#3b3b3b" stroke="#3b3b3b" stroke-width="1.51"/><path d="M1933 1282l110-47-89-50z" fill="#3f3f3f" stroke="#3f3f3f" stroke-width="1.51"/><path d="M2115-95h-199l109 112z" fill="#4b4b4b" stroke="#4b4b4b" stroke-width="1.51"/><path d="M2115-95l-165-102-34 102z" fill="#414141" stroke="#414141" stroke-width="1.51"/><path d="M-130 922l-8 67 86-59z" fill="#696969" stroke="#696969" stroke-width="1.51"/><path d="M-202 1300l161-5-5-152z" fill="#393939" stroke="#393939" stroke-width="1.51"/><path d="M-177 725l39 264 8-67z" fill="#6e6e6e" stroke="#6e6e6e" stroke-width="1.51"/><path d="M2090 171l34-146-99-8z" fill="#5a5a5a" stroke="#5a5a5a" stroke-width="1.51"/><path d="M2121 369l3-344-34 146z" fill="#676767" stroke="#676767" stroke-width="1.51"/><path d="M2150 635l-26-610-3 344z" fill="#757575" stroke="#757575" stroke-width="1.51"/><path d="M-214 359l110 133 67-114z" fill="#888" stroke="#888" stroke-width="1.51"/><path d="M-187 636l-15 506 25-417z" fill="#6e6e6e" stroke="#6e6e6e" stroke-width="1.51"/><path d="M-177 725l-25 417 64-153z" fill="#606060" stroke="#606060" stroke-width="1.51"/><path d="M-128 194l-86 165 177 19z" fill="#7d7d7d" stroke="#7d7d7d" stroke-width="1.51"/><path d="M-18 18l-214 72 104 104z" fill="#626262" stroke="#626262" stroke-width="1.51"/><path d="M-128 194L-232 90l18 269z" fill="#6a6a6a" stroke="#6a6a6a" stroke-width="1.51"/><path d="M190-247L44-206l58 93z" fill="#4d4d4d" stroke="#4d4d4d" stroke-width="1.51"/><path d="M44-206L-52-99l154-14z" fill="#4c4c4c" stroke="#4c4c4c" stroke-width="1.51"/><path d="M-202 1142l156 1-48-87z" fill="#4d4d4d" stroke="#4d4d4d" stroke-width="1.51"/><path d="M-46 1143l5 152 129-9z" fill="#444" stroke="#444" stroke-width="1.51"/><path d="M88 1286l-129 9 421 6z" fill="#4c4c4c" stroke="#4c4c4c" stroke-width="1.51"/><path d="M2124 25l-9-120-90 112z" fill="#4a4a4a" stroke="#4a4a4a" stroke-width="1.51"/><path d="M44-206l-117 29 21 78z" fill="#424242" stroke="#424242" stroke-width="1.51"/><path d="M-214-22l-18 112 214-72z" fill="#535353" stroke="#535353" stroke-width="1.51"/><path d="M-207-220l134 43 117-29z" fill="#353535" stroke="#353535" stroke-width="1.51"/><path d="M-221 462l19 680 15-506z" fill="#767676" stroke="#767676" stroke-width="1.51"/><path d="M-138 989l-64 153 108-86z" fill="#535353" stroke="#535353" stroke-width="1.51"/><path d="M-214-22l196 40-34-117z" fill="#4f4f4f" stroke="#4f4f4f" stroke-width="1.51"/><path d="M-214 359l-18-269 11 372z" fill="#707070" stroke="#707070" stroke-width="1.51"/><path d="M-221 462l19 838v-158z" fill="#5a5a5a" stroke="#5a5a5a" stroke-width="1.51"/><path d="M1950-197l151-27-245-12z" fill="#363636" stroke="#363636" stroke-width="1.51"/><path d="M2115-95l-14-129-151 27z" fill="#343434" stroke="#343434" stroke-width="1.51"/><path d="M-73-177L-214-22l162-77z" fill="#424242" stroke="#424242" stroke-width="1.51"/><path d="M-202 1142v158l156-157z" fill="#3c3c3c" stroke="#3c3c3c" stroke-width="1.51"/><path d="M-41 1295l-161 5 582 1z" fill="#404040" stroke="#404040" stroke-width="1.51"/><path d="M-232 90l30 1210-19-838z" fill="gray" stroke="gray" stroke-width="1.51"/><path d="M190-247l-397 27 251 14z" fill="#3b3b3b" stroke="#3b3b3b" stroke-width="1.51"/><path d="M-73-177l-134-43-7 198z" fill="#363636" stroke="#363636" stroke-width="1.51"/><path d="M-214-22l7-198-25 310z" fill="#3f3f3f" stroke="#3f3f3f" stroke-width="1.51"/></svg>