<?xml version="1.0" encoding="utf-8"?>
<svg id="icon" class="icon" version="1.1" xmlns="http://www.w3.org/2000/svg" xmlns:xlink="http://www.w3.org/1999/xlink">
  <desc>
    Original by @KarllosSouza - https://carloseduardo.js.org/
    Icons from https://simpleicons.org/
  </desc>
  <defs>
    <style>
      .icon { display: none }
      .icon:target { display: inline }
    </style>
  </defs>
  <svg viewBox="0 0 24 24">
    <g id="codeschool" class="icon">
      <path d="M12.003 21.832c-5.438 0-9.847-4.41-9.847-9.844 0-5.438 4.41-9.844 9.847-9.844 5.435 0 9.842 4.406 9.842 9.844 0 5.436-4.394 9.844-9.842 9.844zm0-21.832C5.375 0 0 5.376 0 12s5.377 12 12.003 12C18.625 24 24 18.624 24 12S18.637-.012 12.003 0zm-1.3 15.294L7.2 12l3.503-3.307V5.61L3.943 12l6.76 6.38v-3.086zm2.61-9.685v3.07L16.81 12l-3.502 3.294v3.086L20.07 12l-6.763-6.39"/>
    </g>
  </svg>
  <svg viewBox="0 0 24 24">
    <g id="deezer" class="icon">
      <path d="M14.717 18.695h4.375V17.37h-4.377v1.325h.002zm-9.81 0H9.28V17.37H4.906v1.325h.004zm-4.907 0h4.375V17.37H0v1.325zm9.81 0h4.38V17.37H9.81v1.325zm9.815 0H24V17.37h-4.375v1.325zm0-1.724H24v-1.32h-4.375v1.34-.01zm-9.814 0h4.39v-1.32H9.81v1.34-.01zm-9.81 0h4.38v-1.32H0v1.34-.01zm4.91 0h4.38v-1.32H4.91v1.34l.002-.01zm9.83 0h4.38v-1.32h-4.4v1.34l.017-.01zm0-1.72h4.38v-1.32h-4.4v1.33h.017zm-9.805 0h4.36v-1.32H4.91v1.33h.016zm-4.906 0h4.36v-1.32H0v1.33h.016zm9.81 0h4.38v-1.32h-4.4v1.33h.016zm9.825 0H24v-1.32h-4.375v1.33h.027zm0-1.72H24V12.2h-4.375v1.326h.027zm-9.81 0h4.363V12.2h-4.4v1.326h.033zm-9.81 0H4.4V12.2H0v1.326h.03zm14.73 0h4.38V12.2h-4.43v1.326h.044zm0-1.72h4.38v-1.33h-4.43v1.32h.044zm-14.73 0H4.4v-1.32H0v1.32h.03zm9.81 0h4.38v-1.32H9.81v1.32h.032zm9.81 0H24v-1.33h-4.375v1.328l.027-.002zM9.81 10.08h4.38V8.754H9.81v1.326zm9.815-.002H24V8.753h-4.375v1.325zM9.81 8.355h4.38V7.028H9.81v1.327zm9.815 0H24V7.028h-4.375v1.327zm0-1.725H24V5.304h-4.375V6.63z"/>
    </g>
  </svg>
  <svg viewBox="0 0 24 24">
    <g id="github" class="icon">
      <path d="M12 .297c-6.63 0-12 5.373-12 12 0 5.303 3.438 9.8 8.205 11.385.6.113.82-.258.82-.577 0-.285-.01-1.04-.015-2.04-3.338.724-4.042-1.61-4.042-1.61C4.422 18.07 3.633 17.7 3.633 17.7c-1.087-.744.084-.729.084-.729 1.205.084 1.838 1.236 1.838 1.236 1.07 1.835 2.809 1.305 3.495.998.108-.776.417-1.305.76-1.605-2.665-.3-5.466-1.332-5.466-5.93 0-1.31.465-2.38 1.235-3.22-.135-.303-.54-1.523.105-3.176 0 0 1.005-.322 3.3 1.23.96-.267 1.98-.399 3-.405 1.02.006 2.04.138 3 .405 2.28-1.552 3.285-1.23 3.285-1.23.645 1.653.24 2.873.12 3.176.765.84 1.23 1.91 1.23 3.22 0 4.61-2.805 5.625-5.475 5.92.42.36.81 1.096.81 2.22 0 1.606-.015 2.896-.015 3.286 0 .315.21.69.825.57C20.565 22.092 24 17.592 24 12.297c0-6.627-5.373-12-12-12"/>
    </g>
  </svg>
  <svg viewBox="0 0 24 24">
    <g id="linkedin" class="icon">
      <path d="M20.447 20.452h-3.554v-5.569c0-1.328-.027-3.037-1.852-3.037-1.853 0-2.136 1.445-2.136 2.939v5.667H9.351V9h3.414v1.561h.046c.477-.9 1.637-1.85 3.37-1.85 3.601 0 4.267 2.37 4.267 5.455v6.286zM5.337 7.433c-1.144 0-2.063-.926-2.063-2.065 0-1.138.92-2.063 2.063-2.063 1.14 0 2.064.925 2.064 2.063 0 1.139-.925 2.065-2.064 2.065zm1.782 13.019H3.555V9h3.564v11.452zM22.225 0H1.771C.792 0 0 .774 0 1.729v20.542C0 23.227.792 24 1.771 24h20.451C23.2 24 24 23.227 24 22.271V1.729C24 .774 23.2 0 22.222 0h.003z"/>
    </g>
  </svg>
  <svg viewBox="0 0 24 24">
    <g id="soundcloud" class="icon">
      <path d="M1.175 12.225c-.051 0-.094.046-.101.1l-.233 2.154.233 2.105c.007.058.05.098.101.098.05 0 .09-.04.099-.098l.255-2.105-.27-2.154c0-.057-.045-.1-.09-.1m-.899.828c-.06 0-.091.037-.104.094L0 14.479l.165 1.308c0 .055.045.094.09.094s.089-.045.104-.104l.21-1.319-.21-1.334c0-.061-.044-.09-.09-.09m1.83-1.229c-.061 0-.12.045-.12.104l-.21 2.563.225 2.458c0 .06.045.12.119.12.061 0 .105-.061.121-.12l.254-2.474-.254-2.548c-.016-.06-.061-.12-.121-.12m.945-.089c-.075 0-.135.06-.15.135l-.193 2.64.21 2.544c.016.077.075.138.149.138.075 0 .135-.061.15-.15l.24-2.532-.24-2.623c0-.075-.06-.135-.135-.135l-.031-.017zm1.155.36c-.005-.09-.075-.149-.159-.149-.09 0-.158.06-.164.149l-.217 2.43.2 2.563c0 .09.075.157.159.157.074 0 .148-.068.148-.158l.227-2.563-.227-2.444.033.015zm.809-1.709c-.101 0-.18.09-.18.181l-.21 3.957.187 2.563c0 .09.08.164.18.164.094 0 .174-.09.18-.18l.209-2.563-.209-3.972c-.008-.104-.088-.18-.18-.18m.959-.914c-.105 0-.195.09-.203.194l-.18 4.872.165 2.548c0 .12.09.209.195.209.104 0 .194-.089.21-.209l.193-2.548-.192-4.856c-.016-.12-.105-.21-.21-.21m.989-.449c-.121 0-.211.089-.225.209l-.165 5.275.165 2.52c.014.119.104.225.225.225.119 0 .225-.105.225-.225l.195-2.52-.196-5.275c0-.12-.105-.225-.225-.225m1.245.045c0-.135-.105-.24-.24-.24-.119 0-.24.105-.24.24l-.149 5.441.149 2.503c.016.135.121.24.256.24s.24-.105.24-.24l.164-2.503-.164-5.456-.016.015zm.749-.134c-.135 0-.255.119-.255.254l-.15 5.322.15 2.473c0 .15.12.255.255.255s.255-.12.255-.27l.15-2.474-.165-5.307c0-.148-.12-.27-.271-.27m1.005.166c-.164 0-.284.135-.284.285l-.103 5.143.135 2.474c0 .149.119.277.284.277.149 0 .271-.12.284-.285l.121-2.443-.135-5.112c-.012-.164-.135-.285-.285-.285m1.184-.945c-.045-.029-.105-.044-.165-.044s-.119.015-.165.044c-.09.054-.149.15-.149.255v.061l-.104 6.048.115 2.449v.008c.008.06.03.135.074.18.058.061.142.104.234.104.08 0 .158-.044.209-.09.058-.06.091-.135.091-.225l.015-.24.117-2.203-.135-6.086c0-.104-.061-.193-.135-.239l-.002-.022zm1.006-.547c-.045-.045-.09-.061-.15-.061-.074 0-.149.016-.209.061-.075.061-.119.15-.119.24v.029l-.137 6.609.076 1.215.061 1.185c0 .164.148.314.328.314.181 0 .33-.15.33-.329l.15-2.414-.15-6.637c0-.12-.074-.221-.165-.277m8.934 3.777c-.405 0-.795.086-1.139.232-.24-2.654-2.46-4.736-5.188-4.736-.659 0-1.305.135-1.889.359-.225.09-.27.18-.285.359v9.368c.016.18.15.33.33.345h8.185C22.681 17.218 24 15.914 24 14.28s-1.319-2.952-2.938-2.952"/>
    </g>
  </svg>
  <svg viewBox="0 0 24 24">
    <g id="trakt" class="icon">
      <path d="M12 24C5.385 24 0 18.615 0 12S5.385 0 12 0s12 5.385 12 12-5.385 12-12 12zm0-22.789C6.05 1.211 1.211 6.05 1.211 12S6.05 22.79 12 22.79 22.79 17.95 22.79 12 17.95 1.211 12 1.211zm-7.11 17.32c1.756 1.92 4.294 3.113 7.11 3.113 1.439 0 2.801-.313 4.027-.876l-6.697-6.68-4.44 4.443zm14.288-.067c1.541-1.71 2.484-3.99 2.484-6.466 0-3.885-2.287-7.215-5.568-8.76l-6.089 6.076 9.164 9.15h.009zm-9.877-8.429L4.227 15.09l-.679-.68 5.337-5.336 6.23-6.225c-.978-.328-2.02-.509-3.115-.509C6.663 2.337 2.337 6.663 2.337 12c0 2.172.713 4.178 1.939 5.801l5.056-5.055.359.329 7.245 7.245c.15-.082.285-.164.42-.266L9.33 12.05l-4.854 4.855-.679-.679 5.535-5.535.359.331 8.46 8.437c.135-.1.255-.215.375-.316L9.39 10.027l-.083.015-.006-.007zm3.047 1.028l-.678-.676 4.788-4.79.679.689-4.789 4.785v-.008zm4.542-6.578l-5.52 5.52-.68-.679 5.521-5.52.679.684v-.005z"/>
    </g>
  </svg>
  <svg viewBox="0 0 24 24">
    <g id="twitter" class="icon">
      <path d="M23.954 4.569c-.885.389-1.83.654-2.825.775 1.014-.611 1.794-1.574 2.163-2.723-.951.555-2.005.959-3.127 1.184-.896-.959-2.173-1.559-3.591-1.559-2.717 0-4.92 2.203-4.92 4.917 0 .39.045.765.127 1.124C7.691 8.094 4.066 6.13 1.64 3.161c-.427.722-.666 1.561-.666 2.475 0 1.71.87 3.213 2.188 4.096-.807-.026-1.566-.248-2.228-.616v.061c0 2.385 1.693 4.374 3.946 4.827-.413.111-.849.171-1.296.171-.314 0-.615-.03-.916-.086.631 1.953 2.445 3.377 4.604 3.417-1.68 1.319-3.809 2.105-6.102 2.105-.39 0-.779-.023-1.17-.067 2.189 1.394 4.768 2.209 7.557 2.209 9.054 0 13.999-7.496 13.999-13.986 0-.209 0-.42-.015-.63.961-.689 1.8-1.56 2.46-2.548l-.047-.02z"/>
    </g>
  </svg>
  <svg viewBox="0 0 24 24">
    <g id="upwork" class="icon">
      <path d="M18.561 13.158c-1.102 0-2.135-.467-3.074-1.227l.228-1.076.008-.042c.207-1.143.849-3.06 2.839-3.06 1.492 0 2.703 1.212 2.703 2.703-.001 1.489-1.212 2.702-2.704 2.702zm0-8.14c-2.539 0-4.51 1.649-5.31 4.366-1.22-1.834-2.148-4.036-2.687-5.892H7.828v7.112c-.002 1.406-1.141 2.546-2.547 2.548-1.405-.002-2.543-1.143-2.545-2.548V3.492H0v7.112c0 2.914 2.37 5.303 5.281 5.303 2.913 0 5.283-2.389 5.283-5.303v-1.19c.529 1.107 1.182 2.229 1.974 3.221l-1.673 7.873h2.797l1.213-5.71c1.063.679 2.285 1.109 3.686 1.109 3 0 5.439-2.452 5.439-5.45 0-3-2.439-5.439-5.439-5.439z"/>
    </g>
  </svg>
</svg>